<svg height="423pt" viewBox="-37 0 423 423.25163" width="423pt" xmlns="http://www.w3.org/2000/svg"><path d="m341.460938 92.160156c0 28.277344-22.925782 51.199219-51.203126 51.199219-28.277343 0-51.199218-22.921875-51.199218-51.199219s22.921875-51.199218 51.199218-51.199218c28.277344 0 51.203126 22.921874 51.203126 51.199218zm0 0" fill="#d1bc9d"/><path d="m341.460938 92.160156h6.824218c-.003906-32.050781-25.976562-58.023437-58.027344-58.027344-32.046874.003907-58.019531 25.976563-58.023437 58.027344.003906 32.046875 25.976563 58.019532 58.023437 58.023438 32.050782-.003906 58.023438-25.976563 58.027344-58.023438h-13.652344c-.003906 12.273438-4.957031 23.324219-12.996093 31.375-8.050781 8.042969-19.101563 12.992188-31.378907 13-12.273437-.007812-23.324218-4.957031-31.375-13-8.039062-8.050781-12.992187-19.101562-12.996093-31.375.003906-12.273437 4.957031-23.324218 12.996093-31.378906 8.050782-8.039062 19.101563-12.992188 31.375-12.996094 12.277344.007813 23.328126 4.957032 31.378907 13 8.039062 8.050782 12.992187 19.101563 12.996093 31.375zm0 0" fill="#54596e"/><path d="m109.351562 92.160156c0 28.277344-22.921874 51.199219-51.199218 51.199219s-51.199219-22.921875-51.199219-51.199219 22.921875-51.199218 51.199219-51.199218 51.199218 22.921874 51.199218 51.199218zm0 0" fill="#d1bc9d"/><path d="m109.351562 92.160156h6.828126c-.003907-32.050781-25.976563-58.023437-58.027344-58.027344-32.050782.003907-58.019532 25.976563-58.027344 58.027344.007812 32.050782 25.976562 58.023438 58.027344 58.027344 32.050781-.003906 58.023437-25.976562 58.027344-58.027344h-13.652344c-.003906 12.273438-4.957032 23.324219-12.996094 31.375-8.054688 8.042969-19.105469 12.996094-31.378906 13-12.273438-.007812-23.324219-4.957031-31.375-13-8.042969-8.050781-12.996094-19.101562-13-31.375.003906-12.273437 4.957031-23.324218 13-31.378906 8.050781-8.039062 19.101562-12.992188 31.375-12.996094 12.273437.007813 23.324218 4.957032 31.378906 13 8.039062 8.050782 12.992188 19.101563 12.996094 31.375zm0 0" fill="#54596e"/><path d="m177.621094 6.828125c-71.640625 0-129.707032 58.066406-129.707032 129.707031v266.746094c0 7.257812 5.882813 13.144531 13.144532 13.144531h233.121094c7.261718 0 13.144531-5.886719 13.144531-13.144531v-266.746094c0-71.636718-58.066407-129.707031-129.703125-129.707031zm0 0" fill="#bfad88"/><path d="m177.621094 6.828125v-6.828125c-75.410156.00390625-136.53125 61.121094-136.535156 136.535156v266.746094c.003906 11.03125 8.9375 19.96875 19.972656 19.96875h233.121094c11.035156 0 19.96875-8.9375 19.972656-19.96875v-266.746094c-.003906-75.414062-61.125-136.53124975-136.53125-136.535156v13.652344c33.953125.007812 64.628906 13.746094 86.886718 35.992187 22.25 22.257813 35.988282 52.933594 35.992188 86.890625v266.746094c-.007812 3.484375-2.832031 6.3125-6.320312 6.320312h-233.121094c-3.488282-.007812-6.3125-2.835937-6.320313-6.320312v-266.746094c.003907-33.957031 13.742188-64.636718 35.992188-86.890625 22.257812-22.25 52.933593-35.988281 86.890625-35.992187zm0 0" fill="#54596e"/><path d="m129.832031 105.8125c0 5.65625-4.585937 10.242188-10.238281 10.242188-5.65625 0-10.242188-4.585938-10.242188-10.242188s4.585938-10.238281 10.242188-10.238281c5.652344 0 10.238281 4.582031 10.238281 10.238281zm0 0" fill="#54596e"/><path d="m150.3125 191.148438h54.613281v68.265624h-54.613281zm0 0" fill="#fff"/><g fill="#54596e"><path d="m204.925781 259.414062v-6.828124h-47.785156v-54.613282h40.957031v61.441406h6.828125v-6.828124 6.828124h6.828125v-68.265624c0-1.800782-.730468-3.558594-2-4.828126-1.273437-1.273437-3.03125-2-4.828125-2h-54.613281c-1.796875 0-3.558594.726563-4.828125 2-1.269531 1.269532-2 3.027344-2 4.828126v68.265624c0 1.796876.730469 3.554688 2 4.824219 1.273437 1.273438 3.03125 2 4.828125 2h54.613281c1.796875 0 3.558594-.726562 4.828125-2 1.269532-1.269531 2-3.027343 2-4.824219zm0 0"/><path d="m245.886719 105.8125c0 5.65625-4.585938 10.242188-10.242188 10.242188-5.652343 0-10.238281-4.585938-10.238281-10.242188s4.585938-10.238281 10.238281-10.238281c5.65625 0 10.242188 4.582031 10.242188 10.238281zm0 0"/><path d="m184.445312 238.933594v-47.785156h-13.652343v47.785156"/></g><path d="m95.699219 163.839844c0 22.621094 18.339843 40.960937 40.960937 40.960937s40.960938-18.339843 40.960938-40.960937" fill="#bfad88"/><path d="m88.871094 163.839844c.007812 26.394531 21.394531 47.78125 47.789062 47.785156 26.394532-.003906 47.78125-21.390625 47.785156-47.785156 0-3.773438-3.054687-6.828125-6.824218-6.828125-3.773438 0-6.828125 3.054687-6.828125 6.828125-.003907 9.445312-3.808594 17.933594-10 24.136718-6.195313 6.1875-14.6875 9.992188-24.132813 9.996094-9.449218-.003906-17.9375-3.808594-24.136718-9.996094-6.1875-6.203124-9.996094-14.691406-9.996094-24.136718 0-3.773438-3.058594-6.828125-6.828125-6.828125s-6.828125 3.058593-6.828125 6.828125zm0 0" fill="#54596e"/><path d="m177.621094 163.839844c0 22.621094 18.339844 40.960937 40.957031 40.960937 22.621094 0 40.960937-18.339843 40.960937-40.960937" fill="#bfad88"/><path d="m170.792969 163.839844c.003906 26.394531 21.394531 47.78125 47.785156 47.785156 26.394531-.003906 47.78125-21.390625 47.789063-47.785156 0-3.773438-3.058594-6.828125-6.828126-6.828125-3.769531 0-6.828124 3.054687-6.828124 6.828125 0 9.445312-3.808594 17.933594-9.996094 24.136718-6.199219 6.1875-14.6875 9.992188-24.136719 9.996094-9.445313-.003906-17.9375-3.808594-24.132813-9.996094-6.191406-6.203124-9.996093-14.691406-10-24.136718 0-3.773438-3.054687-6.828125-6.824218-6.828125-3.773438 0-6.828125 3.058593-6.828125 6.828125zm0 0" fill="#54596e"/><path d="m177.621094 286.71875c-33.9375 0-61.441406 27.507812-61.441406 61.441406v61.441406h122.878906v-61.441406c0-33.933594-27.503906-61.441406-61.4375-61.441406zm0 0" fill="#d1bc9d"/><path d="m198.097656 143.359375c0 11.3125-9.167968 20.480469-20.476562 20.480469-11.3125 0-20.480469-9.167969-20.480469-20.480469 0-11.308594 9.167969-20.480469 20.480469-20.480469 11.308594 0 20.476562 9.171875 20.476562 20.480469zm0 0" fill="#ff927d"/><path d="m198.097656 143.359375h6.828125c-.003906-15.085937-12.222656-27.300781-27.304687-27.304687-15.085938.003906-27.304688 12.21875-27.308594 27.304687.003906 15.085937 12.222656 27.300781 27.308594 27.304687 15.082031-.003906 27.300781-12.21875 27.304687-27.304687h-13.652343c-.015626 7.535156-6.117188 13.636719-13.652344 13.652344-7.539063-.015625-13.640625-6.117188-13.65625-13.652344.015625-7.535156 6.117187-13.640625 13.65625-13.65625 7.535156.015625 13.636718 6.121094 13.652344 13.65625zm0 0" fill="#54596e"/><path d="m116.179688 348.160156h-81.921876v-6.828125c0-22.617187 18.339844-40.957031 40.960938-40.957031s40.960938 18.339844 40.960938 40.957031zm0 0" fill="#bfad88"/><path d="m116.179688 348.160156v-6.828125h-75.09375c.003906-9.445312 3.808593-17.9375 9.996093-24.136719 6.199219-6.183593 14.691407-9.992187 24.136719-9.996093 9.445312.007812 17.9375 3.8125 24.136719 10 6.1875 6.199219 9.992187 14.6875 9.996093 24.136719v6.824218h6.828126v-6.824218 6.824218h6.824218v-6.828125c-.003906-26.394531-21.390625-47.78125-47.785156-47.785156-26.394531.003906-47.78125 21.390625-47.785156 47.785156v6.828125c0 1.824219.707031 3.535156 2 4.828125 1.289062 1.289063 3.003906 2 4.824218 2h81.921876c1.820312 0 3.535156-.710937 4.824218-2 1.292969-1.289062 2-3.003906 2-4.828125zm0 0" fill="#54596e"/><path d="m47.914062 389.121094c-7.542968 0-13.65625-6.113282-13.65625-13.65625v-27.304688h27.308594v27.304688c0 7.542968-6.113281 13.65625-13.652344 13.65625zm0 0" fill="#fff"/><path d="m47.914062 389.121094v-6.828125c-3.769531-.007813-6.820312-3.0625-6.828124-6.828125v-20.476563h13.652343v20.476563c-.007812 3.765625-3.058593 6.820312-6.824219 6.828125v13.652343c11.3125-.003906 20.472657-9.164062 20.476563-20.476562v-27.308594c0-1.796875-.726563-3.554687-2-4.828125-1.269531-1.273437-3.027344-2-4.824219-2h-27.308594c-1.796874 0-3.554687.726563-4.824218 2-1.273438 1.273438-2 3.03125-2 4.828125v27.304688c.003906 11.316406 9.164062 20.476562 20.480468 20.480468zm0 0" fill="#54596e"/><path d="m75.21875 389.121094c-7.539062 0-13.652344-6.113282-13.652344-13.65625v-27.304688h27.304688v27.304688c0 7.542968-6.113282 13.65625-13.652344 13.65625zm0 0" fill="#fff"/><path d="m75.21875 389.121094v-6.828125c-3.765625-.007813-6.820312-3.0625-6.828125-6.828125v-20.476563h13.65625v20.476563c-.007813 3.765625-3.0625 6.820312-6.828125 6.828125v13.652343c11.3125-.003906 20.476562-9.164062 20.480469-20.476562v-27.308594c0-1.796875-.730469-3.554687-2-4.828125-1.269531-1.273437-3.03125-2-4.828125-2h-27.304688c-1.796875 0-3.558594.726563-4.828125 2-1.269531 1.273438-2 3.03125-2 4.828125v27.304688c.007813 11.316406 9.167969 20.476562 20.480469 20.480468zm0 0" fill="#54596e"/><path d="m102.527344 389.121094c-7.542969 0-13.65625-6.113282-13.65625-13.65625v-27.304688h27.308594v27.304688c0 7.542968-6.113282 13.65625-13.652344 13.65625zm0 0" fill="#fff"/><path d="m102.527344 389.121094v-6.828125c-3.769532-.007813-6.820313-3.0625-6.828125-6.828125v-20.476563h13.652343v20.476563c-.007812 3.765625-3.058593 6.820312-6.824218 6.828125v13.652343c11.3125-.003906 20.472656-9.164062 20.476562-20.476562v-27.308594c0-1.796875-.726562-3.554687-2-4.828125-1.269531-1.273437-3.027344-2-4.824218-2h-27.308594c-1.796875 0-3.554688.726563-4.824219 2-1.273437 1.273438-2 3.03125-2 4.828125v27.304688c.003906 11.316406 9.164063 20.476562 20.480469 20.480468zm0 0" fill="#54596e"/><path d="m320.980469 348.160156h-81.921875v-6.828125c0-22.617187 18.339844-40.957031 40.960937-40.957031 22.621094 0 40.960938 18.339844 40.960938 40.957031zm0 0" fill="#bfad88"/><path d="m320.980469 348.160156v-6.828125h-75.09375c.003906-9.445312 3.808593-17.9375 9.996093-24.136719 6.199219-6.1875 14.691407-9.992187 24.136719-9.996093 9.445313.003906 17.9375 3.808593 24.136719 9.996093 6.1875 6.199219 9.992188 14.691407 9.996094 24.136719v6.828125h6.828125v-6.828125 6.828125h6.824219v-6.828125c-.003907-26.394531-21.390626-47.78125-47.785157-47.785156-26.394531.003906-47.78125 21.390625-47.785156 47.785156v6.828125c0 1.824219.707031 3.535156 2 4.828125 1.289063 1.289063 3.003906 1.996094 4.824219 1.996094h81.921875c1.820312 0 3.535156-.707031 4.824219-1.996094 1.292968-1.292969 2-3.003906 2-4.828125zm0 0" fill="#54596e"/><path d="m252.710938 389.121094c-7.539063 0-13.652344-6.113282-13.652344-13.65625v-27.304688h27.308594v27.304688c0 7.542968-6.113282 13.65625-13.65625 13.65625zm0 0" fill="#fff"/><path d="m252.710938 389.121094v-6.828125c-3.765626-.007813-6.816407-3.0625-6.824219-6.828125v-20.476563h13.652343v20.476563c-.007812 3.765625-3.058593 6.820312-6.828124 6.828125v13.652343c11.316406-.003906 20.476562-9.164062 20.480468-20.476562v-27.308594c0-1.796875-.726562-3.554687-2-4.828125-1.269531-1.269531-3.027344-2-4.824218-2h-27.308594c-1.796875 0-3.554688.726563-4.824219 2-1.273437 1.273438-2 3.03125-2 4.828125v27.304688c.003906 11.316406 9.164063 20.476562 20.476563 20.480468zm0 0" fill="#54596e"/><path d="m280.019531 389.121094c-7.539062 0-13.652343-6.113282-13.652343-13.65625v-27.304688h27.304687v27.304688c0 7.542968-6.113281 13.65625-13.652344 13.65625zm0 0" fill="#fff"/><path d="m280.019531 389.121094v-6.828125c-3.765625-.007813-6.820312-3.0625-6.828125-6.828125v-20.476563h13.65625v20.476563c-.007812 3.765625-3.0625 6.820312-6.828125 6.828125v13.652343c11.3125-.003906 20.472657-9.164062 20.480469-20.476562v-27.308594c0-1.796875-.730469-3.554687-2-4.828125-1.273438-1.269531-3.03125-2-4.828125-2h-27.304687c-1.796876 0-3.558594.726563-4.828126 2-1.269531 1.273438-2 3.03125-2 4.828125v27.304688c.003907 11.316406 9.167969 20.476562 20.480469 20.480468zm0 0" fill="#54596e"/><path d="m307.324219 389.121094c-7.539063 0-13.652344-6.113282-13.652344-13.65625v-27.304688h27.308594v27.304688c0 7.542968-6.113281 13.65625-13.65625 13.65625zm0 0" fill="#fff"/><path d="m307.324219 389.121094v-6.828125c-3.765625-.007813-6.816407-3.0625-6.824219-6.828125v-20.476563h13.652344v20.476563c-.007813 3.765625-3.058594 6.820312-6.828125 6.828125v13.652343c11.316406-.003906 20.476562-9.164062 20.480469-20.476562v-27.308594c0-1.796875-.726563-3.554687-2-4.828125-1.269532-1.269531-3.027344-2-4.824219-2h-27.308594c-1.796875 0-3.554687.726563-4.824219 2-1.273437 1.273438-2 3.03125-2 4.828125v27.304688c.003906 11.316406 9.164063 20.476562 20.476563 20.480468zm0 0" fill="#54596e"/></svg>