<?xml version="1.0" encoding="UTF-8" standalone="no"?>
<!-- Generator: Adobe Illustrator 19.0.0, SVG Export Plug-In . SVG Version: 6.00 Build 0)  -->

<svg
   xmlns:dc="http://purl.org/dc/elements/1.1/"
   xmlns:cc="http://creativecommons.org/ns#"
   xmlns:rdf="http://www.w3.org/1999/02/22-rdf-syntax-ns#"
   xmlns:svg="http://www.w3.org/2000/svg"
   xmlns="http://www.w3.org/2000/svg"
   xmlns:sodipodi="http://sodipodi.sourceforge.net/DTD/sodipodi-0.dtd"
   xmlns:inkscape="http://www.inkscape.org/namespaces/inkscape"
   version="1.1"
   id="Capa_1"
   x="0px"
   y="0px"
   viewBox="0 0 393.333 393.333"
   style="enable-background:new 0 0 393.333 393.333;"
   xml:space="preserve"
   sodipodi:docname="star6.svg"
   inkscape:version="0.92.5 (2060ec1f9f, 2020-04-08)"><metadata
   id="metadata927"><rdf:RDF><cc:Work
       rdf:about=""><dc:format>image/svg+xml</dc:format><dc:type
         rdf:resource="http://purl.org/dc/dcmitype/StillImage" /><dc:title></dc:title></cc:Work></rdf:RDF></metadata><defs
   id="defs925" /><sodipodi:namedview
   pagecolor="#ffffff"
   bordercolor="#666666"
   borderopacity="1"
   objecttolerance="10"
   gridtolerance="10"
   guidetolerance="10"
   inkscape:pageopacity="0"
   inkscape:pageshadow="2"
   inkscape:window-width="2880"
   inkscape:window-height="1586"
   id="namedview923"
   showgrid="false"
   inkscape:zoom="1.4795323"
   inkscape:cx="137.39396"
   inkscape:cy="209.35697"
   inkscape:window-x="-11"
   inkscape:window-y="-11"
   inkscape:window-maximized="1"
   inkscape:current-layer="g890" />
<g
   id="g890">
	
	
	<path
   style="fill:#ffcc03"
   d="m 330.533,370.029 c -2,0 -3.6,-0.8 -4.8,-2.4 l -0.4,-0.8 -5.6,-26 c -0.4,-1.6 -1.6,-3.2 -3.6,-3.2 l -24.4,-2.8 c -2.4,-0.4 -4.4,-1.6 -5.2,-3.6 -0.8,-2 -0.4,-4 0.8,-5.6 l 0.4,-0.8 23.2,-13.2 c 1.6,-0.8 2.4,-2.8 2,-4.4 l -4.8,-24.4 c -0.4,-2 0.4,-4 2,-5.6 1.6,-1.6 3.6,-2 5.6,-1.2 h 1.2 l 20,18 c 1.2,1.2 3.2,1.2 4.8,0.4 l 25.2,-14 0.8,1.2 c 0.4,0 1.2,0.4 1.6,0.8 2,1.2 2.8,2.8 3.2,4.8 v 0.8 l -11.2,24.4 c -0.8,1.6 -0.4,3.6 0.8,4.8 l 18,16.4 c 2,2 2.8,4.8 1.6,7.2 -0.4,0.8 -2,3.6 -6.8,3.2 l -24,-2.8 c -1.6,-0.4 -3.6,0.8 -4,2.4 l -10.4,22.4 c -0.8,2 -2.8,3.2 -4.8,3.6 -0.4,0.4 -0.8,0.4 -1.2,0.4 z m -31.2,-42.4 18,2 c 5.2,0.4 9.6,4.4 10.8,9.6 l 3.6,18 7.2,-16 c 1.6,-4.8 6.8,-8 12.4,-7.6 l 18.4,2 -13.6,-12.4 c -4,-3.2 -5.2,-9.2 -2.8,-14 l 7.6,-16.8 -16,8.8 c -4.4,2.8 -10,2 -14,-1.6 l -13.6,-12.4 3.6,17.6 c 1.2,5.2 -1.2,10.4 -6,13.2 z"
   id="path876"
   inkscape:connector-curvature="0" />
	<path
   style="fill:#ffcc03"
   d="m 333.733,297.229 -19.2,-17.2 c -1.6,-0.4 -2.8,0.8 -2.4,2.4 l 4.8,24 c 0.8,3.2 -0.8,7.2 -4,8.8 l -22.4,12.8 c -0.4,0.8 -0.8,2.8 1.6,3.2 l 24,2.8 c 3.6,0.4 6.4,2.8 7.2,6.4 l 5.2,25.2 c 0.8,1.2 2.8,0.8 3.2,-0.4 l 10,-22 c 1.2,-3.2 4.8,-5.6 8.4,-5.2 l 24,2.8 c 3.2,0.4 3.6,-2 2,-3.6 l -18,-16.4 c -2.4,-2.4 -3.6,-6 -2,-9.2 l 10.8,-23.6 c 0,-1.2 -1.6,-2.4 -2.8,-1.6 v 0 l -21.6,12 c -2,1.6 -6,1.2 -8.8,-1.2"
   id="path878"
   inkscape:connector-curvature="0" />
	<path
   style="fill:#ffcc03"
   d="m 305.733,158.029 c -4,0 -7.6,-2 -9.2,-5.6 l -19.6,-30.4 c -0.8,-1.6 -2.8,-2 -4.4,-1.6 l -35.6,9.6 c -4.8,1.2 -9.2,-0.8 -11.6,-4.4 -2.4,-4 -2.4,-8.8 0.8,-12.4 l 23.6,-28.8 c 1.2,-1.6 1.2,-3.6 0,-4.8 l -20,-30.8 c -3.2,-4.8 -1.6,-11.6 3.2,-14.8 l 3.6,-2.4 0.4,0.8 c 2.8,-0.4 5.2,0.4 6.8,0.8 l 33.6,13.2 c 1.6,0.8 3.6,0 4.4,-1.2 l 23.2,-28.4 c 2.8,-3.6 7.6,-4.8 12.4,-3.2 4.4,1.6 7.2,6 6.8,10.8 l -2,36.8 c 0,1.6 0.8,3.2 2.8,4 l 34.4,13.2 c 4,1.2 6.8,5.6 6.8,10.4 0,4.8 -3.2,8.8 -8,10 l -35.6,9.6 c -1.6,0.4 -2.8,2 -2.8,3.6 l -3.2,36 c -0.4,4.8 -3.6,8.8 -8.4,10 -0.8,0 -1.6,0 -2.4,0 z m -32,-45.6 c 4,0 8,2 10,5.6 v 0 l 19.6,30.8 c 1.2,2 2.8,1.6 3.2,1.6 0.4,0 2,-0.8 2,-2.4 l 2,-36.8 c 0.4,-5.2 4,-9.6 8.8,-10.8 l 35.6,-9.6 c 1.6,-0.4 2,-1.6 2,-2.4 0,-1.2 -0.4,-2.4 -1.6,-2.4 l -34,-14 c -4.8,-1.6 -8.4,-6.4 -8,-12 l 2,-36.8 c 0,-2 -1.2,-2.4 -1.6,-2.8 -0.4,0 -2,-0.8 -3.2,0.8 l -23.2,28.4 c -3.2,4.4 -8.8,6 -14,4 l -33.6,-13.2 c -2,-0.8 -2.4,-0.8 -3.6,0 h -0.4 c -0.8,0.8 -1.2,2.4 -0.4,3.6 l 19.6,30.4 c 3.2,4 3.2,10.4 -0.4,14.4 l -23.6,28.8 c -0.8,1.2 -0.8,2.4 0,3.2 0.4,0.8 1.2,1.6 3.2,1.2 l 35.6,-9.6 c 1.6,0 2.8,0 4,0 z"
   id="path880"
   inkscape:connector-curvature="0" />
	<path
   style="fill:#ffcc03"
   d="m 280.133,120.029 19.6,30.8 c 3.2,6 12.4,4 12.8,-2.8 l 2,-36.8 c 0,-3.2 2.4,-6.4 6,-7.2 l 35.6,-9.6 c 6.8,-1.6 6.4,-10.8 0.8,-12.8 l -34.4,-13.2 c -3.2,-1.2 -5.6,-4.4 -5.2,-8 l 2,-36.8 c 0.4,-6.8 -8,-9.6 -12,-4.8 l -23.2,28.4 c -2,2.8 -6,4 -9.2,2.8 l -33.6,-13.2 c -2.4,-0.8 -4.4,-1.6 -7.2,0.4 v 0 c -3.2,2 -4,6.4 -2,9.2 l 19.6,30.4 c 2,2.8 2,6.8 0,9.6 l -22.8,28.8 c -4,4.8 0.4,12.4 6.8,10.8 l 35.6,-9.6 c 3.2,-0.8 7.2,0.4 8.8,3.6"
   id="path882"
   inkscape:connector-curvature="0" />
	
	<path
   style="fill:#54596e;fill-opacity:1"
   d="m 312.83789,267.80469 c -9.57949,0.20728 -15.05257,11.96954 -11.22212,20.19896 1.12175,5.86411 2.24725,11.7275 3.36665,17.59205 -8.4314,6.72771 -22.29654,8.03703 -26.15234,19.37891 -2.31125,9.11076 5.83383,19.18025 15.39501,17.90242 5.97516,0.62113 11.94983,1.24702 17.9253,1.86516 3.85565,10.47817 0.91624,24.80613 11.75977,31.51172 8.57084,4.3801 18.90788,-2.55923 20.82617,-11.36914 2.94486,-4.97024 3.43327,-12.79041 9.18359,-15.29297 10.32675,-0.14456 22.52666,6.22824 31.24219,-2.09766 6.31766,-6.29966 4.9088,-17.99621 -2.76729,-22.55762 -4.61583,-4.22119 -9.23283,-8.4411 -13.84794,-12.66308 2.94341,-9.54185 10.58725,-17.88397 10.66601,-27.86719 -1.97559,-9.80368 -15.58926,-14.05562 -22.9737,-7.37493 -5.52309,3.15622 -11.04614,6.31251 -16.56927,9.46868 -9.06798,-5.95974 -14.59091,-19.10774 -26.83203,-18.69531 z m 1.19727,8.24804 c 7.0404,1.21008 10.21107,8.67946 15.89453,12.21875 3.2026,3.01231 8.17907,9.80799 12.95117,5.59766 8.09566,-3.37103 14.99263,-11.04178 23.97656,-11.50976 5.41334,1.27009 6.277,8.77837 2.73828,12.4082 -2.59935,7.04543 -7.43168,13.22094 -8.9414,20.6582 3.95075,6.6773 11.13385,10.58638 16.58984,15.87305 4.13396,2.59395 6.75145,9.9001 1.1875,12.44726 -8.13213,1.95238 -16.41527,-1.53133 -24.47461,-1.89062 -4.15544,-1.14358 -8.61424,0.54088 -9.4082,5.07812 -4.08002,7.56115 -5.70875,17.38354 -12.38672,23.05664 -4.58791,1.50516 -9.0491,-2.85497 -8.42969,-7.46484 -2.49933,-7.65091 -1.5197,-16.92166 -6.08008,-23.58594 -8.10676,-3.07453 -17.11142,-1.85337 -25.50976,-3.42968 -5.51666,-0.54551 -8.58417,-8.37928 -3.11328,-11.37305 7.13312,-5.56273 16.65766,-7.53272 23.23632,-13.75 2.25204,-4.38869 -1.08058,-9.52515 -1.44531,-14.17578 -0.89808,-5.72911 -3.99165,-12.30272 -1.4375,-17.83203 1.08538,-1.41421 2.82846,-2.46887 4.65235,-2.32618 z"
   id="path886"
   inkscape:connector-curvature="0" />
	<path
   style="fill:#54596e;fill-opacity:1"
   d="m 313.14648,4.640625 c -13.69262,0.2508258 -19.30892,14.956021 -27.44737,23.464733 -3.98547,2.885226 -6.0284,12.683764 -11.86317,8.98058 -12.26564,-4.097493 -23.81443,-10.818493 -36.52149,-13.060547 -13.5584,0.007 -23.37168,17.984047 -14.29136,28.836934 5.9459,9.525511 12.40886,18.714128 18.42808,28.192363 -8.30463,12.168006 -21.74522,21.462162 -25.72851,36.181642 -1.11542,7.77562 3.49319,15.22863 10.05945,18.90616 4.51828,2.53053 9.9635,3.27339 15.10851,1.1036 10.51515,-2.54968 20.90344,-5.58639 31.4004,-8.20703 8.55409,11.20951 13.46785,25.42886 24.25586,34.66992 11.74653,7.33396 29.71079,-2.66654 28.41601,-16.83593 0.79327,-10.74708 1.01384,-21.5233 1.73438,-32.30274 13.13403,-4.677 27.55683,-5.29869 39.78515,-12.125 9.72054,-7.386864 9.67572,-24.638765 -1.68359,-30.517576 -8.78953,-5.165069 -18.88883,-7.540138 -28.28906,-11.138672 -6.74728,-0.672027 -7.13566,-8.627775 -5.9961,-13.759765 -0.65637,-11.902543 5.20914,-25.805466 -3.34179,-36.003906 -3.44979,-4.0210342 -8.67256,-6.6228566 -14.0254,-6.384766 z m -0.37695,7.771484 c 7.45657,-0.08453 12.53479,8.191619 10.41247,15.013254 -0.1417,11.906995 -2.43796,24.017402 -1.26598,35.758231 5.35505,5.310136 13.7498,4.905968 19.92578,8.976562 7.72057,3.39456 18.713,4.113761 22.75195,12.669922 2.51912,7.356197 -4.13304,14.731681 -11.41992,15.167969 -11.0444,3.369103 -22.97869,4.873923 -33.42969,9.535153 -3.37906,6.62849 -0.56899,14.39423 -2.45117,21.43946 -1.0487,8.13102 1.92613,18.43258 -4.44922,24.91601 -5.86861,5.009 -15.4151,1.89992 -18.09375,-5.125 -6.82882,-9.87456 -12.00986,-21.52248 -20.09375,-30.02344 -6.89504,-0.24986 -13.05204,3.98519 -19.91758,4.57539 -8.1709,1.64201 -16.63746,6.85437 -25.10195,4.43438 -7.41396,-2.9844 -8.70877,-13.80532 -2.47266,-18.73047 7.57399,-9.56551 16.59799,-18.341796 22.96289,-28.646483 -1.43524,-6.787603 -7.62955,-11.242755 -10.11523,-17.640625 -4.09162,-7.547348 -11.92331,-14.1483 -12.13477,-23.197266 0.60065,-7.305854 10.11358,-13.076679 16.24414,-8.074218 11.69696,3.93169 22.85463,10.338401 34.86914,12.761718 6.3154,-3.434276 8.59242,-11.042014 14.07422,-15.521484 5.63822,-5.969319 9.26981,-15.138866 17.38867,-18.111328 0.78647,-0.16217 1.5395,-0.161763 2.31641,-0.177735 z"
   id="path888"
   inkscape:connector-curvature="0"
   sodipodi:nodetypes="cccccccsccccccccccccccccccccccccccccccccc" />
<path
   style="fill:#ffcc03"
   d="m 54.19553,106.77337 c -2,0 -3.6,-0.8 -4.8,-2.4 l -0.4,-0.8 -5.6,-25.999997 c -0.4,-1.6 -1.6,-3.2 -3.6,-3.2 l -24.4,-2.8 c -2.4,-0.4 -4.4,-1.6 -5.2,-3.6 -0.7999998,-2 -0.3999998,-4 0.8,-5.6 l 0.4,-0.8 23.2,-13.2 c 1.6,-0.8 2.4,-2.8 2,-4.4 l -4.8,-24.4 c -0.4,-2 0.4,-4 2,-5.6 1.6,-1.6 3.6,-2 5.6,-1.2 h 1.2 l 20,18 c 1.2,1.2 3.2,1.2 4.8,0.4 l 25.2,-14 0.8,1.2 c 0.4,0 1.2,0.4 1.6,0.8 2,1.2 2.8,2.8 3.2,4.8 v 0.8 l -11.2,24.4 c -0.8,1.6 -0.4,3.6 0.8,4.8 l 18,16.4 c 2,2 2.8,4.8 1.6,7.2 -0.4,0.8 -2,3.6 -6.8,3.2 l -24,-2.8 c -1.6,-0.4 -3.6,0.8 -4,2.4 l -10.4,22.399997 c -0.8,2 -2.8,3.2 -4.8,3.6 -0.4,0.4 -0.8,0.4 -1.2,0.4 z m -31.2,-42.399997 18,2 c 5.2,0.4 9.6,4.4 10.8,9.6 l 3.6,18 7.2,-16 c 1.6,-4.8 6.8,-8 12.4,-7.6 l 18.4,2 -13.6,-12.4 c -4,-3.2 -5.2,-9.2 -2.8,-14 l 7.6,-16.8 -16,8.8 c -4.4,2.8 -10,2 -14,-1.6 l -13.6,-12.4 3.6,17.6 c 1.2,5.2 -1.2,10.4 -6,13.2 z"
   id="path876-1"
   inkscape:connector-curvature="0" /><path
   style="fill:#ffcc03"
   d="m 57.39553,33.973373 -19.2,-17.2 c -1.6,-0.4 -2.8,0.8 -2.4,2.4 l 4.8,24 c 0.8,3.2 -0.8,7.2 -4,8.8 l -22.4,12.8 c -0.4,0.8 -0.8,2.8 1.6,3.2 l 24,2.8 c 3.6,0.4 6.4,2.8 7.2,6.4 l 5.2,25.199997 c 0.8,1.2 2.8,0.8 3.2,-0.4 l 10,-21.999997 c 1.2,-3.2 4.8,-5.6 8.4,-5.2 l 24,2.8 c 3.2,0.4 3.6,-2 2,-3.6 l -18,-16.4 c -2.4,-2.4 -3.6,-6 -2,-9.2 l 10.8,-23.6 c 0,-1.2 -1.6,-2.4 -2.8,-1.6 v 0 l -21.6,12 c -2,1.6 -6,1.2 -8.8,-1.2"
   id="path878-4"
   inkscape:connector-curvature="0" /><path
   style="fill:#54596e;fill-opacity:1"
   d="M 36.50042,4.5490628 C 26.92093,4.7563428 21.44785,16.518603 25.2783,24.748023 c 1.12175,5.86411 2.24725,11.7275 3.36665,17.59205 -8.4314,6.72771 -22.2965398,8.03703 -26.1523398,19.37891 -2.31125003,9.11076 5.83383,19.18025 15.3950098,17.90242 5.97516,0.62113 11.94983,1.24702 17.9253,1.86516 3.85565,10.47817 0.91624,24.806127 11.75977,31.511717 8.57084,4.3801 18.90788,-2.55923 20.82617,-11.36914 2.94486,-4.970237 3.43327,-12.790407 9.18359,-15.292967 10.32675,-0.14456 22.52666,6.22824 31.24219,-2.09766 6.31766,-6.29966 4.9088,-17.99621 -2.76729,-22.55762 -4.61583,-4.22119 -9.23283,-8.4411 -13.84794,-12.66308 2.94341,-9.54185 10.58725,-17.88397 10.66601,-27.86719 -1.97559,-9.80368 -15.58926,-14.0556202 -22.9737,-7.37493 -5.52309,3.15622 -11.04614,6.31251 -16.56927,9.46868 C 54.26447,17.284633 48.74154,4.1366328 36.50042,4.5490628 Z m 1.19727,8.2480402 c 7.0404,1.21008 10.21107,8.67946 15.89453,12.21875 3.2026,3.01231 8.17907,9.80799 12.95117,5.59766 8.09566,-3.37103 14.99263,-11.04178 23.97656,-11.50976 5.41334,1.27009 6.277,8.77837 2.73828,12.4082 -2.59935,7.04543 -7.43168,13.22094 -8.9414,20.6582 3.95075,6.6773 11.13385,10.58638 16.58984,15.87305 4.13396,2.59395 6.75145,9.9001 1.1875,12.44726 -8.13213,1.95238 -16.41527,-1.53133 -24.47461,-1.89062 -4.15544,-1.14358 -8.61424,0.54088 -9.4082,5.07812 -4.08002,7.56115 -5.70875,17.383537 -12.38672,23.056637 -4.58791,1.50516 -9.0491,-2.85497 -8.42969,-7.464837 -2.49933,-7.65091 -1.5197,-16.92166 -6.08008,-23.58594 -8.10676,-3.07453 -17.11142,-1.85337 -25.50976,-3.42968 -5.51666,-0.54551 -8.5841698,-8.37928 -3.11328,-11.37305 7.13312,-5.56273 16.65766,-7.53272 23.23632,-13.75 2.25204,-4.38869 -1.08058,-9.52515 -1.44531,-14.17578 -0.89808,-5.72911 -3.99165,-12.30272 -1.4375,-17.83203 1.08538,-1.41421 2.82846,-2.46887 4.65235,-2.32618 z"
   id="path886-6"
   inkscape:connector-curvature="0" /><path
   style="fill:#ffcc03;stroke-width:0.40169832"
   d="m 158.20232,47.095695 c -0.8034,0 -1.44611,-0.32135 -1.92815,-0.96407 l -0.16068,-0.32136 -2.24951,-10.44416 c -0.16068,-0.64271 -0.64272,-1.28543 -1.44612,-1.28543 l -9.80143,-1.12476 c -0.96408,-0.16068 -1.76748,-0.64271 -2.08884,-1.44611 -0.32136,-0.8034 -0.16068,-1.60679 0.32136,-2.24951 l 0.16068,-0.32136 9.3194,-5.30242 c 0.64272,-0.32136 0.96408,-1.12475 0.8034,-1.76747 l -1.92815,-9.80144 c -0.16068,-0.8034 0.16068,-1.60679 0.80339,-2.2495095 0.64272,-0.64272 1.44612,-0.8034 2.24951,-0.48204 h 0.48204 l 8.03397,7.2305695 c 0.48204,0.48204 1.28543,0.48204 1.92815,0.16068 l 10.1228,-5.62378 0.32136,0.48204 c 0.16068,0 0.48204,0.16068 0.64272,0.32136 0.80339,0.48204 1.12475,1.12476 1.28543,1.92815 v 0.32136 l -4.49902,9.80144 c -0.32136,0.64272 -0.16068,1.44611 0.32136,1.92815 l 7.23057,6.58786 c 0.80339,0.80339 1.12475,1.92815 0.64271,2.89222 -0.16067,0.32136 -0.80339,1.44612 -2.73154,1.28544 l -9.64076,-1.12476 c -0.64272,-0.16068 -1.44612,0.32136 -1.6068,0.96408 l -4.17766,8.99804 c -0.32136,0.8034 -1.12476,1.28544 -1.92815,1.44612 -0.16068,0.16067 -0.32136,0.16067 -0.48204,0.16067 z m -12.53299,-17.032 7.23057,0.80339 c 2.08883,0.16068 3.85631,1.76747 4.33834,3.85631 l 1.44612,7.23057 2.89223,-6.42718 c 0.64271,-1.92815 2.73154,-3.21358 4.98106,-3.0529 l 7.39124,0.80339 -5.46309,-4.98106 c -1.6068,-1.28543 -2.08883,-3.69562 -1.12476,-5.62377 l 3.05291,-6.74854 -6.42717,3.53495 c -1.76748,1.12475 -4.01699,0.8034 -5.62378,-0.64272 l -5.4631,-4.98106 1.44612,7.06989 c 0.48203,2.08883 -0.48204,4.17767 -2.41019,5.30242 z"
   id="path876-7"
   inkscape:connector-curvature="0" /><path
   style="fill:#ffcc03;stroke-width:0.40169832"
   d="m 159.48775,17.852065 -7.7126,-6.90922 c -0.64272,-0.16067 -1.12476,0.32136 -0.96408,0.96408 l 1.92815,9.64076 c 0.32136,1.28544 -0.32136,2.89223 -1.60679,3.53495 l -8.99804,5.14173 c -0.16068,0.32136 -0.32136,1.12476 0.64272,1.28544 l 9.64075,1.12475 c 1.44612,0.16068 2.57087,1.12476 2.89223,2.57087 l 2.08883,10.1228 c 0.32136,0.48204 1.12476,0.32136 1.28544,-0.16068 l 4.01698,-8.83736 c 0.48204,-1.28544 1.92815,-2.24951 3.37427,-2.08883 l 9.64076,1.12475 c 1.28543,0.16068 1.44611,-0.80339 0.80339,-1.44611 l -7.23057,-6.58785 c -0.96407,-0.96408 -1.44611,-2.41019 -0.80339,-3.69563 l 4.33834,-9.48008 c 0,-0.48204 -0.64272,-0.96407 -1.12476,-0.64272 v 0 l -8.67668,4.82038 c -0.8034,0.64272 -2.41019,0.48204 -3.53495,-0.48203"
   id="path878-3"
   inkscape:connector-curvature="0" /><path
   style="fill:#54596e;fill-opacity:1;stroke-width:0.40169832"
   d="m 151.09422,6.0323655 c -3.84806,0.0833 -6.04659,4.8081395 -4.5079,8.1138895 0.4506,2.3556 0.90271,4.71092 1.35237,7.0667 -3.38687,2.70251 -8.95648,3.22846 -10.50535,7.78447 -0.92842,3.65978 2.34344,7.70468 6.18415,7.19137 2.40021,0.24951 4.80023,0.50093 7.20057,0.74924 1.5488,4.20906 0.36805,9.96458 4.72388,12.6582 3.44289,1.75948 7.59526,-1.02804 8.36583,-4.56696 1.18295,-1.99654 1.37914,-5.13789 3.68904,-6.14316 4.14823,-0.0581 9.04892,2.50187 12.54993,-0.84263 2.5378,-2.53056 1.97186,-7.22905 -1.11161,-9.06136 -1.85417,-1.69564 -3.70882,-3.39078 -5.5627,-5.08674 1.18236,-3.83294 4.25288,-7.18396 4.28452,-11.1942 -0.79359,-3.9381195 -6.26218,-5.6461195 -9.2285,-2.9624995 -2.21861,1.2678495 -4.43721,2.5357295 -6.65584,3.8035495 -3.6426,-2.39401 -5.86115,-7.6755395 -10.77839,-7.5098695 z m 0.48094,3.31322 c 2.82812,0.48609 4.10177,3.4865295 6.38481,4.9082595 1.28648,1.21004 3.28552,3.93985 5.20246,2.24857 3.25202,-1.35414 6.02252,-4.43547 9.63135,-4.62346 2.17453,0.5102 2.52146,3.52626 1.09996,4.98436 -1.04415,2.83014 -2.98529,5.31083 -3.59174,8.29836 1.58701,2.68226 4.47244,4.25253 6.66411,6.37618 1.6606,1.04199 2.71204,3.97685 0.47701,5.00004 -3.26666,0.78427 -6.59398,-0.61513 -9.83141,-0.75946 -1.66923,-0.45937 -3.46032,0.21728 -3.77925,2.03988 -1.63894,3.0373 -2.2932,6.98294 -4.97573,9.26181 -1.84296,0.60462 -3.63501,-1.14684 -3.38619,-2.99861 -1.00398,-3.07336 -0.61046,-6.79741 -2.44236,-9.47444 -3.25647,-1.23503 -6.87363,-0.74449 -10.24723,-1.37769 -2.21603,-0.21913 -3.44825,-3.36595 -1.2506,-4.56854 2.86537,-2.23454 6.69136,-3.02588 9.33399,-5.52335 0.90464,-1.76293 -0.43406,-3.82624 -0.58058,-5.69439 -0.36075,-2.30137 -1.60343,-4.94198 -0.57744,-7.16309 0.436,-0.5680895 1.13619,-0.9917395 1.86884,-0.9344295 z"
   id="path886-5"
   inkscape:connector-curvature="0" /><path
   style="fill:#ffcc03;stroke-width:0.49842918"
   d="m 361.27748,221.41833 c -0.99686,0 -1.79435,-0.39874 -2.39246,-1.19623 l -0.19937,-0.39874 -2.7912,-12.95916 c -0.19937,-0.79749 -0.79749,-1.59497 -1.79435,-1.59497 l -12.16167,-1.39561 c -1.19623,-0.19937 -2.19309,-0.79748 -2.59184,-1.79434 -0.39874,-0.99686 -0.19937,-1.99372 0.39875,-2.7912 l 0.19937,-0.39874 11.56355,-6.57927 c 0.7975,-0.39875 1.19624,-1.3956 0.99687,-2.19309 l -2.39246,-12.16167 c -0.19937,-0.99686 0.19937,-1.99372 0.99685,-2.7912 0.79749,-0.79749 1.79435,-0.99686 2.79121,-0.59812 h 0.59811 l 9.96859,8.97173 c 0.59811,0.59811 1.59497,0.59811 2.39245,0.19937 l 12.56042,-6.97801 0.39875,0.59812 c 0.19937,0 0.59811,0.19937 0.79748,0.39874 0.99686,0.59811 1.3956,1.3956 1.59497,2.39246 v 0.39874 l -5.5824,12.16167 c -0.39875,0.79749 -0.19937,1.79434 0.39874,2.39246 l 8.97173,8.17424 c 0.99685,0.99686 1.3956,2.39246 0.79748,3.58869 -0.19937,0.39874 -0.99685,1.79434 -3.38931,1.59497 l -11.9623,-1.3956 c -0.79749,-0.19937 -1.79435,0.39875 -1.99372,1.19623 l -5.18366,11.16481 c -0.39875,0.99686 -1.39561,1.59498 -2.39246,1.79435 -0.19937,0.19937 -0.39875,0.19937 -0.59812,0.19937 z m -15.55099,-21.1334 8.97172,0.99686 c 2.59183,0.19938 4.78492,2.19309 5.38304,4.78492 l 1.79435,8.97173 3.58868,-7.97487 c 0.79749,-2.39246 3.38932,-3.98743 6.18053,-3.78806 l 9.17109,0.99686 -6.77863,-6.18052 c -1.99372,-1.59498 -2.59183,-4.58555 -1.39561,-6.97801 l 3.78807,-8.37361 -7.97487,4.38618 c -2.19309,1.39559 -4.9843,0.99685 -6.97801,-0.79749 l -6.77864,-6.18052 1.79435,8.77235 c 0.59811,2.59183 -0.59811,5.18366 -2.99058,6.57927 z"
   id="path876-2"
   inkscape:connector-curvature="0" /><path
   style="fill:#ffcc03;stroke-width:0.49842918"
   d="m 362.87245,185.13269 -9.56984,-8.57298 c -0.79748,-0.19938 -1.3956,0.39874 -1.19622,1.19623 l 2.39245,11.9623 c 0.39875,1.59497 -0.39874,3.58869 -1.99371,4.38617 l -11.16482,6.37989 c -0.19937,0.39875 -0.39874,1.39561 0.79749,1.59498 l 11.9623,1.3956 c 1.79435,0.19937 3.18994,1.39561 3.58869,3.18994 l 2.59183,12.56042 c 0.39874,0.59812 1.39561,0.39875 1.59498,-0.19937 l 4.98428,-10.96544 c 0.59813,-1.59498 2.39246,-2.7912 4.18681,-2.59183 l 11.9623,1.3956 c 1.59497,0.19937 1.79434,-0.99686 0.99686,-1.79434 l -8.97173,-8.17424 c -1.19622,-1.19623 -1.79434,-2.99058 -0.99685,-4.58555 l 5.38303,-11.76293 c 0,-0.59811 -0.79749,-1.19623 -1.3956,-0.79749 v 0 l -10.76607,5.98115 c -0.99686,0.79749 -2.99057,0.59812 -4.38618,-0.59811"
   id="path878-8"
   inkscape:connector-curvature="0" /><path
   style="fill:#54596e;fill-opacity:1;stroke-width:0.49842918"
   d="m 352.45772,170.46676 c -4.77469,0.10331 -7.50264,5.96596 -5.59343,10.06774 0.55911,2.92285 1.1201,5.84533 1.67803,8.7684 -4.20245,3.35329 -11.11324,4.00588 -13.03509,9.65901 -1.15199,4.54107 2.90775,9.56 7.67333,8.92309 2.97819,0.30959 5.95614,0.62155 8.93449,0.92964 1.92177,5.22264 0.45668,12.36411 5.86142,15.70637 4.27195,2.18316 9.42423,-1.27559 10.38036,-5.66671 1.4678,-2.47732 1.71124,-6.37511 4.57737,-7.62246 5.14716,-0.0721 11.22795,3.10433 15.57202,-1.04554 3.14891,-3.13994 2.44669,-8.96984 -1.3793,-11.24338 -2.30066,-2.10396 -4.60191,-4.20728 -6.90222,-6.31164 1.46709,-4.75594 5.277,-8.9139 5.31625,-13.88983 -0.98469,-4.88643 -7.77014,-7.00573 -11.45075,-3.67587 -2.75287,1.57314 -5.50572,3.14633 -8.25861,4.71946 -4.51975,-2.97051 -7.27254,-9.52385 -13.37387,-9.31828 z m 0.59675,4.11106 c 3.50915,0.60314 5.0895,4.32609 7.9223,6.09018 1.59627,1.50142 4.07669,4.88859 6.45524,2.79003 4.03512,-1.68021 7.47277,-5.50354 11.95062,-5.73679 2.69816,0.63305 3.12864,4.37539 1.36484,6.1846 -1.29559,3.51165 -3.70417,6.5897 -4.45666,10.29666 1.96917,3.32816 5.54944,5.27656 8.26886,7.91158 2.06049,1.2929 3.36512,4.9345 0.59189,6.20408 -4.05329,0.97313 -8.18185,-0.76326 -12.19886,-0.94234 -2.07119,-0.56999 -4.29359,0.26959 -4.68932,2.53108 -2.0336,3.7687 -2.84541,8.66447 -6.17391,11.49211 -2.28675,0.75021 -4.51033,-1.423 -4.2016,-3.72069 -1.24574,-3.81344 -0.75746,-8.43425 -3.03048,-11.75593 -4.04065,-1.53243 -8.52884,-0.92377 -12.71482,-1.70945 -2.74966,-0.2719 -4.2786,-4.17648 -1.55174,-5.66866 3.55535,-2.77263 8.30266,-3.75452 11.58166,-6.8534 1.12247,-2.18745 -0.5386,-4.74761 -0.72039,-7.06563 -0.44763,-2.85555 -1.98955,-6.13202 -0.71649,-8.888 0.54098,-0.70488 1.40978,-1.23055 2.31886,-1.15943 z"
   id="path886-3"
   inkscape:connector-curvature="0" /><path
   style="fill:#ffcc03;stroke-width:0.49842918"
   d="m 42.310395,227.6745 c -0.99686,0 -1.79435,-0.39874 -2.39246,-1.19623 l -0.19937,-0.39874 -2.7912,-12.95916 c -0.19937,-0.79749 -0.79749,-1.59497 -1.79435,-1.59497 l -12.16167,-1.39561 c -1.19623,-0.19937 -2.19309,-0.79748 -2.59184,-1.79434 -0.39874,-0.99686 -0.19937,-1.99372 0.39875,-2.7912 l 0.19937,-0.39874 11.56355,-6.57927 c 0.7975,-0.39875 1.19624,-1.3956 0.99687,-2.19309 l -2.39246,-12.16167 c -0.19937,-0.99686 0.19937,-1.99372 0.99685,-2.7912 0.79749,-0.79749 1.79435,-0.99686 2.79121,-0.59812 h 0.59811 l 9.96859,8.97173 c 0.59811,0.59811 1.59497,0.59811 2.39245,0.19937 l 12.56042,-6.97801 0.39875,0.59812 c 0.19937,0 0.59811,0.19937 0.79748,0.39874 0.99686,0.59811 1.3956,1.3956 1.59497,2.39246 v 0.39874 l -5.5824,12.16167 c -0.39875,0.79749 -0.19937,1.79434 0.39874,2.39246 l 8.97173,8.17424 c 0.99685,0.99686 1.3956,2.39246 0.79748,3.58869 -0.19937,0.39874 -0.99685,1.79434 -3.38931,1.59497 l -11.9623,-1.3956 c -0.79749,-0.19937 -1.79435,0.39875 -1.99372,1.19623 l -5.18366,11.16481 c -0.39875,0.99686 -1.39561,1.59498 -2.39246,1.79435 -0.19937,0.19937 -0.39875,0.19937 -0.59812,0.19937 z m -15.55099,-21.1334 8.97172,0.99686 c 2.59183,0.19938 4.78492,2.19309 5.38304,4.78492 l 1.79435,8.97173 3.58868,-7.97487 c 0.79749,-2.39246 3.38932,-3.98743 6.18053,-3.78806 l 9.17109,0.99686 -6.77863,-6.18052 c -1.99372,-1.59498 -2.59183,-4.58555 -1.39561,-6.97801 l 3.78807,-8.37361 -7.97487,4.38618 c -2.19309,1.39559 -4.9843,0.99685 -6.97801,-0.79749 l -6.77864,-6.18052 1.79435,8.77235 c 0.59811,2.59183 -0.59811,5.18366 -2.99058,6.57927 z"
   id="path876-2-4"
   inkscape:connector-curvature="0" /><path
   style="fill:#ffcc03;stroke-width:0.49842918"
   d="m 43.905365,191.38886 -9.56984,-8.57298 c -0.79748,-0.19938 -1.3956,0.39874 -1.19622,1.19623 l 2.39245,11.9623 c 0.39875,1.59497 -0.39874,3.58869 -1.99371,4.38617 l -11.16482,6.37989 c -0.19937,0.39875 -0.39874,1.39561 0.79749,1.59498 l 11.9623,1.3956 c 1.79435,0.19937 3.18994,1.39561 3.58869,3.18994 l 2.59183,12.56042 c 0.39874,0.59812 1.39561,0.39875 1.59498,-0.19937 l 4.98428,-10.96544 c 0.59813,-1.59498 2.39246,-2.7912 4.18681,-2.59183 l 11.9623,1.3956 c 1.59497,0.19937 1.79434,-0.99686 0.99686,-1.79434 l -8.97173,-8.17424 c -1.19622,-1.19623 -1.79434,-2.99058 -0.99685,-4.58555 l 5.38303,-11.76293 c 0,-0.59811 -0.79749,-1.19623 -1.3956,-0.79749 v 0 l -10.76607,5.98115 c -0.99686,0.79749 -2.99057,0.59812 -4.38618,-0.59811"
   id="path878-8-9"
   inkscape:connector-curvature="0" /><path
   style="fill:#54596e;fill-opacity:1;stroke-width:0.49842918"
   d="m 33.490635,176.72293 c -4.77469,0.10331 -7.50264,5.96596 -5.59343,10.06774 0.55911,2.92285 1.1201,5.84533 1.67803,8.7684 -4.20245,3.35329 -11.11324,4.00588 -13.03509,9.65901 -1.15199,4.54107 2.90775,9.56 7.67333,8.92309 2.97819,0.30959 5.95614,0.62155 8.93449,0.92964 1.92177,5.22264 0.45668,12.36411 5.86142,15.70637 4.27195,2.18316 9.42423,-1.27559 10.38036,-5.66671 1.4678,-2.47732 1.71124,-6.37511 4.57737,-7.62246 5.14716,-0.0721 11.22795,3.10433 15.57202,-1.04554 3.14891,-3.13994 2.44669,-8.96984 -1.3793,-11.24338 -2.30066,-2.10396 -4.60191,-4.20728 -6.90222,-6.31164 1.46709,-4.75594 5.277,-8.9139 5.31625,-13.88983 -0.98469,-4.88643 -7.77014,-7.00573 -11.45075,-3.67587 -2.75287,1.57314 -5.50572,3.14633 -8.25861,4.71946 -4.51975,-2.97051 -7.27254,-9.52385 -13.37387,-9.31828 z m 0.59675,4.11106 c 3.50915,0.60314 5.0895,4.32609 7.9223,6.09018 1.59627,1.50142 4.07669,4.88859 6.45524,2.79003 4.03512,-1.68021 7.47277,-5.50354 11.95062,-5.73679 2.69816,0.63305 3.12864,4.37539 1.36484,6.1846 -1.29559,3.51165 -3.70417,6.5897 -4.45666,10.29666 1.96917,3.32816 5.54944,5.27656 8.26886,7.91158 2.06049,1.2929 3.36512,4.9345 0.59189,6.20408 -4.05329,0.97313 -8.18185,-0.76326 -12.19886,-0.94234 -2.07119,-0.56999 -4.29359,0.26959 -4.68932,2.53108 -2.0336,3.7687 -2.84541,8.66447 -6.17391,11.49211 -2.28675,0.75021 -4.51033,-1.423 -4.2016,-3.72069 -1.24574,-3.81344 -0.75746,-8.43425 -3.03048,-11.75593 -4.04065,-1.53243 -8.52884,-0.92377 -12.71482,-1.70945 -2.74966,-0.2719 -4.2786,-4.17648 -1.55174,-5.66866 3.55535,-2.77263 8.30266,-3.75452 11.58166,-6.8534 1.12247,-2.18745 -0.5386,-4.74761 -0.72039,-7.06563 -0.44763,-2.85555 -1.98955,-6.13202 -0.71649,-8.888 0.54098,-0.70488 1.40978,-1.23055 2.31886,-1.15943 z"
   id="path886-3-4"
   inkscape:connector-curvature="0" /><path
   style="fill:#ffcc03"
   d="m 137.56687,383.50135 c -4,0 -7.6,-2 -9.2,-5.6 l -19.6,-30.4 c -0.8,-1.6 -2.8,-2 -4.4,-1.6 l -35.599996,9.6 c -4.8,1.2 -9.2,-0.8 -11.6,-4.4 -2.4,-4 -2.4,-8.8 0.8,-12.4 l 23.6,-28.8 c 1.2,-1.6 1.2,-3.6 0,-4.8 l -20,-30.8 c -3.2,-4.8 -1.6,-11.6 3.2,-14.8 l 3.6,-2.4 0.4,0.8 c 2.8,-0.4 5.2,0.4 6.8,0.8 l 33.599996,13.2 c 1.6,0.8 3.6,0 4.4,-1.2 l 23.2,-28.4 c 2.8,-3.6 7.6,-4.8 12.4,-3.2 4.4,1.6 7.2,6 6.8,10.8 l -2,36.8 c 0,1.6 0.8,3.2 2.8,4 l 34.4,13.2 c 4,1.2 6.8,5.6 6.8,10.4 0,4.8 -3.2,8.8 -8,10 l -35.6,9.6 c -1.6,0.4 -2.8,2 -2.8,3.6 l -3.2,36 c -0.4,4.8 -3.6,8.8 -8.4,10 -0.8,0 -1.6,0 -2.4,0 z m -32,-45.6 c 4,0 8,2 10,5.6 v 0 l 19.6,30.8 c 1.2,2 2.8,1.6 3.2,1.6 0.4,0 2,-0.8 2,-2.4 l 2,-36.8 c 0.4,-5.2 4,-9.6 8.8,-10.8 l 35.6,-9.6 c 1.6,-0.4 2,-1.6 2,-2.4 0,-1.2 -0.4,-2.4 -1.6,-2.4 l -34,-14 c -4.8,-1.6 -8.4,-6.4 -8,-12 l 2,-36.8 c 0,-2 -1.2,-2.4 -1.6,-2.8 -0.4,0 -2,-0.8 -3.2,0.8 l -23.2,28.4 c -3.2,4.4 -8.8,6 -14,4 l -33.599996,-13.2 c -2,-0.8 -2.4,-0.8 -3.6,0 h -0.4 c -0.8,0.8 -1.2,2.4 -0.4,3.6 l 19.6,30.4 c 3.2,4 3.2,10.4 -0.4,14.4 l -23.6,28.8 c -0.8,1.2 -0.8,2.4 0,3.2 0.4,0.8 1.2,1.6 3.2,1.2 l 35.599996,-9.6 c 1.6,0 2.8,0 4,0 z"
   id="path880-6"
   inkscape:connector-curvature="0" /><path
   style="fill:#ffcc03"
   d="m 111.96687,345.50135 19.6,30.8 c 3.2,6 12.4,4 12.8,-2.8 l 2,-36.8 c 0,-3.2 2.4,-6.4 6,-7.2 l 35.6,-9.6 c 6.8,-1.6 6.4,-10.8 0.8,-12.8 l -34.4,-13.2 c -3.2,-1.2 -5.6,-4.4 -5.2,-8 l 2,-36.8 c 0.4,-6.8 -8,-9.6 -12,-4.8 l -23.2,28.4 c -2,2.8 -6,4 -9.2,2.8 l -33.599996,-13.2 c -2.4,-0.8 -4.4,-1.6 -7.2,0.4 v 0 c -3.2,2 -4,6.4 -2,9.2 l 19.6,30.4 c 2,2.8 2,6.8 0,9.6 l -22.8,28.8 c -4,4.8 0.4,12.4 6.8,10.8 l 35.599996,-9.6 c 3.2,-0.8 7.2,0.4 8.8,3.6"
   id="path882-5"
   inkscape:connector-curvature="0" /><path
   style="fill:#54596e;fill-opacity:1"
   d="m 144.98035,230.11297 c -13.69262,0.25083 -19.30892,14.95603 -27.44737,23.46474 -3.98547,2.88522 -6.0284,12.68376 -11.86317,8.98058 -12.265636,-4.0975 -23.814426,-10.8185 -36.521486,-13.06055 -13.5584,0.007 -23.37168,17.98405 -14.29136,28.83693 5.9459,9.52552 12.40886,18.71413 18.42808,28.19237 -8.30463,12.16801 -21.74522,21.46216 -25.72851,36.18164 -1.11542,7.77562 3.49319,15.22863 10.05945,18.90616 4.51828,2.53053 9.9635,3.27339 15.10851,1.1036 10.51515,-2.54968 20.90344,-5.58639 31.400396,-8.20703 8.55409,11.20951 13.46785,25.42886 24.25586,34.66992 11.74653,7.33396 29.71079,-2.66654 28.41601,-16.83593 0.79327,-10.74708 1.01384,-21.5233 1.73438,-32.30274 13.13403,-4.677 27.55683,-5.29869 39.78515,-12.125 9.72054,-7.38686 9.67572,-24.63876 -1.68359,-30.51758 -8.78953,-5.16507 -18.88883,-7.54013 -28.28906,-11.13867 -6.74728,-0.67203 -7.13566,-8.62777 -5.9961,-13.75976 -0.65637,-11.90255 5.20914,-25.80547 -3.34179,-36.00391 -3.44979,-4.02103 -8.67256,-6.62286 -14.0254,-6.38477 z m -0.37695,7.77149 c 7.45657,-0.0845 12.53479,8.19162 10.41247,15.01325 -0.1417,11.907 -2.43796,24.0174 -1.26598,35.75823 5.35505,5.31014 13.7498,4.90597 19.92578,8.97657 7.72057,3.39456 18.713,4.11376 22.75195,12.66992 2.51912,7.3562 -4.13304,14.73168 -11.41992,15.16797 -11.0444,3.3691 -22.97869,4.87392 -33.42969,9.53515 -3.37906,6.62849 -0.56899,14.39423 -2.45117,21.43946 -1.0487,8.13102 1.92613,18.43258 -4.44922,24.91601 -5.86861,5.009 -15.4151,1.89992 -18.09375,-5.125 -6.82882,-9.87456 -12.00986,-21.52248 -20.09375,-30.02344 -6.895036,-0.24986 -13.052036,3.98519 -19.917576,4.57539 -8.1709,1.64201 -16.63746,6.85437 -25.10195,4.43438 -7.41396,-2.9844 -8.70877,-13.80532 -2.47266,-18.73047 7.57399,-9.56551 16.59799,-18.34179 22.96289,-28.64648 -1.43524,-6.7876 -7.62955,-11.24276 -10.11523,-17.64063 -4.09162,-7.54735 -11.92331,-14.1483 -12.13477,-23.19726 0.60065,-7.30586 10.11358,-13.07668 16.24414,-8.07422 11.69696,3.93169 22.85463,10.3384 34.869136,12.76172 6.3154,-3.43428 8.59242,-11.04202 14.07422,-15.52149 5.63822,-5.96932 9.26981,-15.13886 17.38867,-18.11133 0.78647,-0.16217 1.5395,-0.16176 2.31641,-0.17773 z"
   id="path888-4"
   inkscape:connector-curvature="0"
   sodipodi:nodetypes="cccccccsccccccccccccccccccccccccccccccccc" /></g>
<g
   id="g892">
</g>
<g
   id="g894">
</g>
<g
   id="g896">
</g>
<g
   id="g898">
</g>
<g
   id="g900">
</g>
<g
   id="g902">
</g>
<g
   id="g904">
</g>
<g
   id="g906">
</g>
<g
   id="g908">
</g>
<g
   id="g910">
</g>
<g
   id="g912">
</g>
<g
   id="g914">
</g>
<g
   id="g916">
</g>
<g
   id="g918">
</g>
<g
   id="g920">
</g>
</svg>